<svg width="250" height="72" viewBox="0 0 250 72" fill="none" xmlns="http://www.w3.org/2000/svg">
<path d="M1.89502 32.8836C2.94223 36.6836 6.38305 39.7336 11.5692 39.7336C16.5559 39.7336 19.897 36.6336 19.897 31.7836C19.897 28.5336 17.8525 26.1336 13.7634 24.6836C9.72414 23.1336 8.47747 22.1836 8.47747 20.7336C8.47747 19.2836 9.67427 18.3336 11.27 18.3336C13.0652 18.3336 14.5114 19.1336 15.5586 20.7336L18.7999 17.7836C17.2541 15.1336 14.6111 13.7336 11.2202 13.7336C6.83185 13.7336 3.54063 16.7336 3.54063 20.6336C3.54063 24.3836 5.68491 26.4836 9.62441 27.9336C13.0652 29.2836 14.9103 30.3336 14.9103 32.0836C14.9103 34.0336 13.514 35.1336 11.5692 35.1336C9.026 35.1336 7.18092 33.6336 6.13372 30.6336L1.89502 32.8836Z" fill="black"/>
<path d="M22.7679 39.3336H28.0538V29.5336C28.0538 22.3836 30.5471 18.3336 34.0877 18.3336C36.4813 18.3336 37.6282 19.6336 37.6282 22.4836V39.3336H42.8643V29.1336C42.8643 22.1836 45.5072 18.3336 48.8982 18.3336C51.2918 18.3336 52.4388 19.6336 52.4388 22.4836V39.3336H57.6748V21.6336C57.6748 16.5836 55.0817 13.7336 50.2945 13.7336C47.1529 13.7336 44.2606 15.7836 42.4654 19.0336C41.468 15.4836 38.9248 13.7336 35.484 13.7336C32.4421 13.7336 29.9487 15.3336 28.0538 18.5336V14.1336H22.7679V39.3336Z" fill="black"/>
<path d="M60.2741 32.0836C60.2741 37.0336 63.5155 39.7336 67.9536 39.7336C71.2947 39.7336 73.8878 38.4836 75.7329 35.9336L76.431 39.3336H80.6697V23.7836C80.6697 17.2336 76.8798 13.7336 70.6465 13.7336C65.8093 13.7336 62.0195 16.5336 61.2216 20.6836L65.8093 21.7336C66.5574 19.4836 68.203 18.3336 70.6465 18.3336C73.4889 18.3336 75.4337 19.7336 75.4337 22.7336V23.8336H71.0454C64.4131 23.8336 60.2741 26.9336 60.2741 32.0836ZM75.4337 28.7836C75.4337 32.8836 72.2422 35.1336 69.2003 35.1336C67.1558 35.1336 65.7595 33.8836 65.7595 32.0336C65.7595 29.4336 67.6544 28.1336 71.2449 28.1336H75.4337V28.7836Z" fill="black"/>
<path d="M84.6926 39.3336H89.9785V30.1336C89.9785 22.2836 92.8209 18.4836 96.7604 18.4836C97.8575 18.4836 98.8049 18.7336 99.6527 19.2336L100.65 14.3336C99.4532 13.9336 98.3562 13.7336 97.4087 13.7336C94.3668 13.7336 91.6241 15.3336 89.9785 18.3336V14.1336H84.6926V39.3336Z" fill="black"/>
<path d="M104.915 30.9336C104.915 36.7836 108.056 39.7336 113.292 39.7336C114.838 39.7336 116.235 39.4336 117.431 38.8336L116.185 34.4836C115.437 34.9336 114.539 35.1336 113.542 35.1336C111.348 35.1336 110.201 33.9836 110.201 31.0336V18.7336H116.883V14.1336H110.201V3.93359L104.915 7.28359V14.1336H100.876V18.7336H104.915V30.9336Z" fill="black"/>
<path d="M121.21 26.7334C121.21 33.9334 125.947 39.7334 133.677 39.7334C141.356 39.7334 146.143 33.9334 146.143 26.7334C146.143 19.5334 141.356 13.7334 133.677 13.7334C125.947 13.7334 121.21 19.5334 121.21 26.7334ZM140.608 26.7334C140.608 29.0834 140.01 31.0334 138.763 32.6834C137.516 34.3334 135.821 35.1334 133.677 35.1334C131.532 35.1334 129.787 34.3334 128.54 32.6834C127.294 31.0334 126.695 29.0834 126.695 26.7334C126.695 24.3834 127.294 22.4334 128.54 20.7834C129.787 19.1334 131.532 18.3334 133.677 18.3334C135.821 18.3334 137.516 19.1334 138.763 20.7834C140.01 22.4334 140.608 24.3834 140.608 26.7334Z" fill="url(#paint0_linear)"/>
<path d="M153.975 39.3334H158.763L163.4 21.7334L167.988 39.3334H172.775L180.654 14.1334H175.318L170.431 32.4834L165.844 14.1334H160.907L156.319 32.4834L151.432 14.1334H146.096L153.975 39.3334Z" fill="url(#paint1_linear)"/>
<path d="M182.34 39.3334H187.625V28.9834C187.625 22.3334 190.568 18.3334 194.058 18.3334C196.651 18.3334 198.147 19.8834 198.147 22.9334V39.3334H203.383V21.5334C203.383 16.5334 200.292 13.7334 195.654 13.7334C192.413 13.7334 189.471 15.5834 187.625 18.5334V14.1334H182.34V39.3334Z" fill="url(#paint2_linear)"/>
<path d="M229.983 25.9334C229.983 19.7334 225.993 13.7334 218.464 13.7334C210.734 13.7334 206.695 20.0334 206.695 26.7334C206.695 33.4334 210.734 39.7334 218.464 39.7334C223.999 39.7334 227.44 37.3334 229.634 32.4834L225.295 30.7834C223.65 33.7834 221.755 35.1334 218.713 35.1334C214.973 35.1334 212.529 32.5334 212.081 28.1334H229.983V25.9334ZM212.33 23.8334C213.128 20.2834 215.471 18.3334 218.464 18.3334C222.004 18.3334 223.999 20.5834 224.597 23.8334H212.33Z" fill="url(#paint3_linear)"/>
<path d="M233.258 39.3334H238.544V30.1334C238.544 22.2834 241.387 18.4834 245.326 18.4834C246.423 18.4834 247.371 18.7334 248.219 19.2334L249.216 14.3334C248.019 13.9334 246.922 13.7334 245.975 13.7334C242.933 13.7334 240.19 15.3334 238.544 18.3334V14.1334H233.258V39.3334Z" fill="url(#paint4_linear)"/>
<path d="M89.7218 63.29C90.0204 64 90.9516 64.6061 92.0058 64.6061C95.0979 64.6061 96.8197 62.2684 96.8197 59.2035C96.8197 56.9351 95.6777 55.6017 93.6924 55.6017C92.6558 55.6017 91.6368 56.0519 91.0043 56.7446L91.1273 56.1385L91.8828 52.2078H90.4245L88 64.4675H89.4934L89.5636 64.0519L89.7218 63.29ZM95.2912 59.4286C95.2912 61.4026 94.1492 63.3247 92.0936 63.3247C90.8813 63.3247 90.1434 62.5108 90.1434 60.9351C90.1434 58.9264 91.4435 56.8831 93.2883 56.8831C94.5708 56.8831 95.2912 57.7662 95.2912 59.4286Z" fill="black"/>
<path d="M96.7958 68H98.3067L105.159 55.7403H103.542L99.9934 62.3203L98.9392 55.7403H97.4283L98.869 64.2771L96.7958 68Z" fill="black"/>
<path d="M107.725 62.2338C108.094 63.5498 109.306 64.6061 111.134 64.6061C112.89 64.6061 114.068 63.5325 114.068 61.8528C114.068 60.7273 113.347 59.8961 111.907 59.3939C110.483 58.8571 110.044 58.5281 110.044 58.026C110.044 57.5238 110.466 57.1948 111.028 57.1948C111.661 57.1948 112.17 57.4719 112.539 58.026L113.681 57.0043C113.136 56.0866 112.205 55.6017 111.011 55.6017C109.464 55.6017 108.305 56.6407 108.305 57.9913C108.305 59.29 109.06 60.0173 110.448 60.5195C111.661 60.987 112.311 61.3506 112.311 61.9567C112.311 62.632 111.819 63.013 111.134 63.013C110.238 63.013 109.587 62.4935 109.219 61.4545L107.725 62.2338Z" fill="black"/>
<path d="M115.079 64.4675H116.941V61.0736C116.941 58.5974 117.82 57.1948 119.067 57.1948C119.911 57.1948 120.315 57.645 120.315 58.632V64.4675H122.159V60.9351C122.159 58.5281 123.091 57.1948 124.285 57.1948C125.129 57.1948 125.533 57.645 125.533 58.632V64.4675H127.377V58.3377C127.377 56.5887 126.464 55.6017 124.777 55.6017C123.67 55.6017 122.651 56.3117 122.019 57.4372C121.667 56.2078 120.771 55.6017 119.559 55.6017C118.487 55.6017 117.609 56.1558 116.941 57.2641V55.7403H115.079V64.4675Z" fill="black"/>
<path d="M128.293 61.9567C128.293 63.671 129.435 64.6061 130.999 64.6061C132.176 64.6061 133.09 64.1732 133.74 63.29L133.986 64.4675H135.479V59.0823C135.479 56.8139 134.144 55.6017 131.948 55.6017C130.243 55.6017 128.908 56.5714 128.627 58.0087L130.243 58.3723C130.507 57.5931 131.087 57.1948 131.948 57.1948C132.949 57.1948 133.634 57.6797 133.634 58.7186V59.0996H132.088C129.751 59.0996 128.293 60.1732 128.293 61.9567ZM133.634 60.8139C133.634 62.2338 132.51 63.013 131.438 63.013C130.718 63.013 130.226 62.5801 130.226 61.9394C130.226 61.039 130.893 60.5887 132.158 60.5887H133.634V60.8139Z" fill="black"/>
<path d="M136.896 64.4675H138.759V61.2814C138.759 58.5628 139.76 57.2468 141.148 57.2468C141.535 57.2468 141.868 57.3333 142.167 57.5065L142.518 55.8095C142.097 55.671 141.71 55.6017 141.376 55.6017C140.305 55.6017 139.338 56.1558 138.759 57.1948V55.7403H136.896V64.4675Z" fill="black"/>
<path d="M144.021 61.5584C144.021 63.5844 145.128 64.6061 146.973 64.6061C147.517 64.6061 148.009 64.5022 148.431 64.2944L147.992 62.7879C147.728 62.9437 147.412 63.013 147.06 63.013C146.287 63.013 145.883 62.6147 145.883 61.5931V57.3333H148.238V55.7403H145.883V52.2078L144.021 53.368V55.7403H142.598V57.3333H144.021V61.5584Z" fill="black"/>
<path d="M148.985 64.4675H150.848V52.2078H148.985V64.4675Z" fill="black"/>
<path d="M152.499 64.4675H154.361V55.7403H152.499V64.4675ZM152.165 53.2294C152.165 53.9221 152.692 54.4589 153.413 54.4589C154.133 54.4589 154.678 53.9221 154.678 53.2294C154.678 52.5368 154.133 52 153.413 52C152.692 52 152.165 52.5368 152.165 53.2294Z" fill="black"/>
<path d="M155.961 64.4675H157.824V60.8831C157.824 58.5801 158.86 57.1948 160.09 57.1948C161.004 57.1948 161.531 57.7316 161.531 58.7879V64.4675H163.376V58.303C163.376 56.5714 162.286 55.6017 160.652 55.6017C159.51 55.6017 158.474 56.2424 157.824 57.2641V55.7403H155.961V64.4675Z" fill="black"/>
<path d="M165.034 64.4675H166.897V60.2078L170.287 64.4675H172.571L168.689 59.7576L172.308 55.7403H170.024L166.897 59.29V52.2078H165.034V64.4675Z" fill="black"/>
<defs>
<linearGradient id="paint0_linear" x1="119.016" y1="24.6667" x2="250" y2="24.6667" gradientUnits="userSpaceOnUse">
<stop stop-color="#2B6AF0"/>
<stop offset="1" stop-color="#032A7C"/>
</linearGradient>
<linearGradient id="paint1_linear" x1="119.016" y1="24.6667" x2="250" y2="24.6667" gradientUnits="userSpaceOnUse">
<stop stop-color="#2B6AF0"/>
<stop offset="1" stop-color="#032A7C"/>
</linearGradient>
<linearGradient id="paint2_linear" x1="119.016" y1="24.6667" x2="250" y2="24.6667" gradientUnits="userSpaceOnUse">
<stop stop-color="#2B6AF0"/>
<stop offset="1" stop-color="#032A7C"/>
</linearGradient>
<linearGradient id="paint3_linear" x1="119.016" y1="24.6667" x2="250" y2="24.6667" gradientUnits="userSpaceOnUse">
<stop stop-color="#2B6AF0"/>
<stop offset="1" stop-color="#032A7C"/>
</linearGradient>
<linearGradient id="paint4_linear" x1="119.016" y1="24.6667" x2="250" y2="24.6667" gradientUnits="userSpaceOnUse">
<stop stop-color="#2B6AF0"/>
<stop offset="1" stop-color="#032A7C"/>
</linearGradient>
</defs>
</svg>
